<?xml version="1.0" encoding="UTF-8"?><svg id="Layer_2" xmlns="http://www.w3.org/2000/svg" viewBox="0 0 483.52 553.05"><defs><style>.cls-1{fill:#3192c9;}.cls-2{fill:#78bc43;}.cls-3{fill:none;}</style></defs><path class="cls-1" d="M427.59,266.97c-2.34-38.23-21.31-64.28-57.78-114.4-26.27-36.06-40.49-44.97-72.15-89.68-18.21-25.74-31.37-48.04-39.66-62.89-17.96,28.09-34.47,49.09-45.64,62.49-27.61,33.14-40.66,41.54-69.35,76.54-23.15,28.24-34.3,42.56-42.65,58.99-17.61,34.67-25.38,86-7.17,133.52,25,65.24,92.68,106.86,160.22,107.22,70.6.36,116.31-44.48,123.96-52.22,12.73-12.89,53.96-58.69,50.21-119.56ZM178.49,188.44c-4.6,16.64-7.98,26.9-25.51,81.71-9.01,28.13-16.26,50.87-20.73,64.97-2.91-1.86-6.61-4.47-10.52-8.02-3.91-3.53-8.04-7.98-11.8-13.5,0,0-11.59-18.16-13.16-37.47-.18-2.15-.6-8.8,1.63-19.03,8.63-39.66,47.73-90.67,70.51-119.67,7.04-8.96,16.82-21.27,28.71-35.88-6.15,36.84-13.49,66.4-19.13,86.89Z"/><path class="cls-3" d="M197.62,101.55c-6.15,36.84-13.49,66.4-19.13,86.89-4.6,16.64-7.98,26.9-25.51,81.71-9.01,28.13-16.26,50.87-20.73,64.97-2.91-1.86-6.61-4.47-10.52-8.02-3.91-3.53-8.04-7.98-11.8-13.5,0,0-11.59-18.16-13.16-37.47-.18-2.15-.6-8.8,1.63-19.03,8.63-39.66,47.73-90.67,70.51-119.67,7.04-8.96,16.82-21.27,28.71-35.88Z"/><path class="cls-3" d="M197.62,101.55c-6.15,36.84-13.49,66.4-19.13,86.89-4.6,16.64-7.98,26.9-25.51,81.71-9.01,28.13-16.26,50.87-20.73,64.97-2.91-1.86-6.61-4.47-10.52-8.02-3.91-3.53-8.04-7.98-11.8-13.5,0,0-11.59-18.16-13.16-37.47-.18-2.15-.6-8.8,1.63-19.03,8.63-39.66,47.73-90.67,70.51-119.67,7.04-8.96,16.82-21.27,28.71-35.88Z"/><path class="cls-2" d="M244.65,455.88c-35.61,24.37-68.53,36.6-90.87,43.05-38.05,10.99-64.46,10.37-92.08,10.37,0,0-31.84-.8-58.18-18.34-2.28-1.52-3.08-3.58-3.08-3.58-.89-2.32-.18-4.56,0-5.18,2.37-8.02-1.7-19.19,11.84-61.38,4.85-15.12,12.02-34.43,22.72-56.21,11.02,8.2,27.19,19.8,47.43,32.69,35.72,22.74,59.25,37.72,92.08,47.83,15.8,4.85,39.57,10.37,70.15,10.75Z"/><path class="cls-2" d="M483.11,432.76c-1.52,25.32-3.11,55.46-22.03,79.32-24.44,30.79-62.22,36.53-74.94,37.87-90.2,1.03-180.42,2.06-270.62,3.1-2.7-.33-6.19-1.05-9.97-2.7-3.13-1.38-4.22-2.43-7.17-3.58-4.02-1.61-7.44-2.05-10.35-2.01-9.74.18-20.36.18-27.52-.8-3.89-.52-9.74-1.77-16.73-5.18,21.31-.63,51.92-2.73,88.08-9.56,16.47-3.11,100.97-19.82,194.51-73.75,22.37-12.89,44.15-27.28,86.09-54.99,26.5-17.52,48.19-32.38,62.96-42.65,4.49,16.69,9.61,42.88,7.69,74.92Z"/></svg>