<?xml version="1.0" encoding="UTF-8"?><svg id="Layer_2" xmlns="http://www.w3.org/2000/svg" viewBox="0 0 792 576"><defs><style>.cls-1{fill:#3192c9;}.cls-2{fill:#78bc43;}.cls-3{fill:none;}</style></defs><path class="cls-1" d="M498.97,282.48c-1.29-21.12-11.77-35.51-31.92-63.2-14.51-19.92-22.37-24.84-39.86-49.54-10.06-14.22-17.33-26.54-21.91-34.74-9.92,15.52-19.04,27.12-25.21,34.52-15.25,18.31-22.46,22.95-38.31,42.28-12.79,15.6-18.95,23.51-23.56,32.59-9.73,19.15-14.02,47.51-3.96,73.76,13.81,36.04,51.2,59.03,88.51,59.23,39,.2,64.25-24.57,68.48-28.85,7.03-7.12,29.81-32.42,27.74-66.05ZM361.36,239.1c-2.54,9.19-4.41,14.86-14.09,45.14-4.98,15.54-8.98,28.1-11.45,35.89-1.61-1.03-3.65-2.47-5.81-4.43-2.16-1.95-4.44-4.41-6.52-7.46,0,0-6.4-10.03-7.27-20.7-.1-1.19-.33-4.86.9-10.51,4.77-21.91,26.37-50.09,38.95-66.11,3.89-4.95,9.29-11.75,15.86-19.82-3.4,20.35-7.45,36.68-10.57,48Z"/><path class="cls-3" d="M371.93,191.1c-3.4,20.35-7.45,36.68-10.57,48-2.54,9.19-4.41,14.86-14.09,45.14-4.98,15.54-8.98,28.1-11.45,35.89-1.61-1.03-3.65-2.47-5.81-4.43-2.16-1.95-4.44-4.41-6.52-7.46,0,0-6.4-10.03-7.27-20.7-.1-1.19-.33-4.86.9-10.51,4.77-21.91,26.37-50.09,38.95-66.11,3.89-4.95,9.29-11.75,15.86-19.82Z"/><path class="cls-3" d="M371.93,191.1c-3.4,20.35-7.45,36.68-10.57,48-2.54,9.19-4.41,14.86-14.09,45.14-4.98,15.54-8.98,28.1-11.45,35.89-1.61-1.03-3.65-2.47-5.81-4.43-2.16-1.95-4.44-4.41-6.52-7.46,0,0-6.4-10.03-7.27-20.7-.1-1.19-.33-4.86.9-10.51,4.77-21.91,26.37-50.09,38.95-66.11,3.89-4.95,9.29-11.75,15.86-19.82Z"/><path class="cls-2" d="M397.91,386.84c-19.67,13.46-37.86,20.22-50.2,23.78-21.02,6.07-35.61,5.73-50.87,5.73,0,0-17.59-.44-32.14-10.13-1.26-.84-1.7-1.98-1.7-1.98-.49-1.28-.1-2.52,0-2.86,1.31-4.43-.94-10.6,6.54-33.91,2.68-8.35,6.64-19.02,12.55-31.05,6.09,4.53,15.02,10.94,26.2,18.06,19.73,12.56,32.73,20.84,50.87,26.42,8.73,2.68,21.86,5.73,38.75,5.94Z"/><path class="cls-2" d="M529.64,374.07c-.84,13.99-1.72,30.64-12.17,43.82-13.5,17.01-34.37,20.18-41.4,20.92-49.83.57-99.67,1.14-149.5,1.71-1.49-.18-3.42-.58-5.51-1.49-1.73-.76-2.33-1.34-3.96-1.98-2.22-.89-4.11-1.13-5.72-1.11-5.38.1-11.25.1-15.2-.44-2.15-.29-5.38-.98-9.24-2.86,11.77-.35,28.68-1.51,48.66-5.28,9.1-1.72,55.78-10.95,107.45-40.74,12.36-7.12,24.39-15.07,47.56-30.38,14.64-9.68,26.62-17.89,34.78-23.56,2.48,9.22,5.31,23.69,4.25,41.39Z"/></svg>